<?xml version="1.0" standalone="no"?>
<!DOCTYPE svg PUBLIC "-//W3C//DTD SVG 20010904//EN"
 "http://www.w3.org/TR/2001/REC-SVG-20010904/DTD/svg10.dtd">
<svg version="1.0" xmlns="http://www.w3.org/2000/svg"
 width="500.000000pt" height="500.000000pt" viewBox="0 0 500.000000 500.000000"
 preserveAspectRatio="xMidYMid meet">
<metadata>
Created by potrace 1.14, written by Peter Selinger 2001-2017
</metadata>
<g transform="translate(0.000000,500.000000) scale(0.100000,-0.100000)"
fill="#000000" stroke="none">
<path d="M3299 3323 c-31 -8 -46 -54 -44 -133 2 -41 8 -87 14 -102 5 -15 7
-29 3 -31 -4 -3 -50 6 -102 19 -91 23 -144 30 -295 39 -114 8 -147 11 -210 25
-135 29 -518 9 -570 -30 -5 -4 -22 -10 -36 -13 -14 -4 -42 -18 -62 -31 -20
-14 -44 -25 -54 -24 -32 1 -279 -21 -294 -26 -8 -3 -30 -7 -49 -10 -99 -14
-192 -64 -268 -145 -88 -92 -127 -171 -138 -280 -5 -56 -13 -85 -43 -171 -15
-42 -43 -74 -146 -167 -40 -35 -46 -77 -19 -118 25 -38 166 -78 258 -72 174
10 285 53 378 148 47 48 78 119 78 177 0 38 11 20 37 -61 28 -90 28 -93 -2
-120 -27 -24 -34 -67 -21 -127 12 -59 14 -74 15 -106 2 -82 102 -107 194 -49
54 34 96 105 92 154 -2 27 -1 28 27 20 16 -4 50 -20 76 -35 26 -14 64 -36 85
-47 34 -19 37 -24 31 -52 -3 -16 -14 -43 -23 -60 -20 -36 -20 -81 2 -153 19
-61 36 -82 69 -83 148 -3 242 3 268 16 41 21 60 53 60 102 0 34 -6 48 -34 77
-18 20 -43 36 -55 36 -24 0 -27 12 -7 29 8 7 17 22 20 35 3 13 43 55 88 94 46
38 106 90 133 115 52 48 80 62 180 93 121 36 299 127 345 174 17 18 119 101
176 143 21 15 49 30 64 33 14 3 42 12 62 19 20 8 58 17 85 21 26 3 51 8 55 11
9 5 36 10 93 18 93 14 205 66 248 116 32 39 14 159 -24 159 -25 0 -168 75
-199 105 -19 19 -65 51 -102 73 -65 38 -131 103 -143 142 -7 22 -53 50 -81 50
-10 0 -32 -5 -50 -12 -28 -10 -36 -9 -52 5 -17 16 -73 21 -113 10z m-1439
-664 c0 -6 7 -26 16 -45 9 -19 14 -37 11 -40 -3 -3 -36 -16 -74 -28 -49 -17
-74 -31 -88 -52 l-20 -30 -2 58 c-1 54 1 59 35 89 53 46 122 74 122 48z"/>
</g>
</svg>
